<?xml version="1.0" standalone="no"?>
<!DOCTYPE svg PUBLIC "-//W3C//DTD SVG 20010904//EN"
 "http://www.w3.org/TR/2001/REC-SVG-20010904/DTD/svg10.dtd">
<svg version="1.0" xmlns="http://www.w3.org/2000/svg"
 width="579.000000pt" height="256.000000pt" viewBox="0 0 579.000000 256.000000"
 preserveAspectRatio="xMidYMid meet">

<g transform="translate(0.000000,256.000000) scale(0.100000,-0.100000)"
fill="#000000" stroke="none">
<path d="M2335 2403 c-187 -11 -351 -27 -419 -39 -298 -57 -383 -186 -261
-396 69 -118 85 -153 85 -187 0 -33 38 -84 79 -105 14 -8 87 -24 161 -37 121
-22 162 -24 390 -22 140 1 392 10 560 21 320 21 408 19 640 -18 91 -15 440 -8
518 10 34 7 56 19 63 32 24 45 6 64 -194 195 -398 262 -471 303 -647 366 -86
31 -299 87 -440 116 -236 48 -386 72 -444 69 -23 -1 -63 -3 -91 -5z m-237
-182 c42 -16 95 -35 117 -43 22 -7 42 -16 45 -19 3 -3 12 -9 20 -13 41 -18
-36 6 -125 39 -145 53 -159 57 -190 45 -14 -5 -34 -10 -43 -9 -23 0 47 26 76
28 12 0 57 -12 100 -28z m-215 12 c-7 -2 -19 -2 -25 0 -7 3 -2 5 12 5 14 0 19
-2 13 -5z m1054 -309 c-3 -3 -12 -4 -19 -1 -8 3 -5 6 6 6 11 1 17 -2 13 -5z
m158 -40 c55 -13 125 -31 155 -39 125 -35 352 -84 499 -110 84 -14 115 -25 70
-25 -111 1 -735 147 -849 199 l-25 12 25 -6 c14 -3 70 -17 125 -31z m823 -181
c-10 -2 -26 -2 -35 0 -10 3 -2 5 17 5 19 0 27 -2 18 -5z"/>
<path d="M2195 1394 c-105 -22 -127 -40 -85 -66 27 -17 26 -27 -13 -143 l-34
-100 -64 0 c-53 -1 -75 -6 -127 -35 -158 -84 -259 -305 -179 -390 43 -47 163
-3 235 87 17 21 33 35 36 32 3 -3 -1 -26 -10 -52 -20 -59 -8 -87 39 -87 64 1
197 82 197 121 0 26 -16 24 -52 -6 -41 -34 -62 -33 -54 3 9 37 72 229 145 445
34 98 61 183 61 188 0 9 -57 11 -95 3z m-165 -388 c0 -76 -122 -249 -207 -295
-45 -24 -44 20 3 115 44 86 112 172 156 196 36 20 48 16 48 -16z"/>
<path d="M477 1344 c-14 -14 -6 -25 28 -40 54 -22 54 -23 -79 -429 l-52 -160
-45 -16 c-24 -9 -45 -24 -47 -33 -3 -14 23 -16 261 -16 301 0 277 -7 322 94
42 95 21 113 -47 40 -57 -61 -85 -74 -165 -76 -91 -2 -113 6 -113 42 0 31 132
456 158 509 12 24 28 37 52 45 20 6 35 18 35 26 0 13 -25 15 -151 18 -82 1
-153 -1 -157 -4z"/>
<path d="M3055 1342 c-12 -12 -2 -24 30 -38 23 -9 35 -21 35 -33 0 -11 -16
-70 -36 -133 -19 -62 -55 -175 -78 -250 -51 -163 -64 -185 -111 -194 -25 -4
-35 -11 -35 -25 0 -18 10 -19 160 -19 147 0 160 1 160 18 0 12 -11 21 -32 27
-30 9 -33 13 -32 50 1 55 53 214 73 224 9 5 45 6 81 2 l65 -6 5 -35 c4 -26 10
-35 24 -35 15 0 25 21 52 105 39 123 39 120 17 120 -10 0 -28 -16 -41 -36 -27
-41 -56 -54 -120 -54 -77 0 -78 2 -35 135 44 137 48 141 147 130 78 -8 96 -22
96 -75 0 -41 15 -59 32 -42 14 14 59 153 53 163 -5 8 -502 8 -510 1z"/>
<path d="M3711 1309 c-33 -13 -50 -38 -51 -75 0 -72 91 -89 125 -23 20 38 19
65 -5 89 -22 22 -33 23 -69 9z"/>
<path d="M1154 1081 c-68 -17 -137 -78 -176 -155 -85 -168 -19 -298 144 -283
46 4 72 13 108 38 79 54 140 165 140 256 0 43 -32 105 -65 127 -30 20 -107 28
-151 17z m84 -53 c25 -25 4 -126 -50 -233 -50 -100 -93 -131 -118 -85 -28 52
50 257 116 309 31 24 36 25 52 9z"/>
<path d="M2473 1081 c-126 -32 -232 -165 -241 -302 -5 -76 10 -109 59 -129 84
-35 269 48 269 121 0 11 -2 19 -4 19 -2 0 -27 -16 -56 -35 -83 -56 -134 -44
-128 31 3 36 5 37 68 58 82 26 152 67 174 101 56 86 -26 165 -141 136z m35
-72 c2 -14 -7 -40 -20 -59 -24 -35 -84 -77 -95 -66 -11 10 28 95 58 127 32 35
53 34 57 -2z"/>
<path d="M3650 1081 c-41 -13 -88 -40 -125 -72 -54 -48 -41 -83 15 -39 14 11
31 20 38 20 17 0 14 -10 -54 -174 -50 -121 -53 -131 -39 -153 29 -44 123 -20
212 53 67 55 55 96 -13 44 -32 -25 -64 -38 -64 -27 0 1 27 65 60 142 63 149
69 174 44 199 -17 17 -34 19 -74 7z"/>
<path d="M4033 1080 c-47 -11 -116 -55 -153 -96 -51 -59 -90 -150 -90 -212 0
-101 44 -140 146 -128 62 7 82 16 137 58 43 35 59 59 48 76 -6 10 -22 3 -60
-23 -84 -56 -135 -44 -129 31 3 35 5 37 63 55 140 43 222 123 195 189 -20 49
-81 68 -157 50z m35 -71 c2 -14 -7 -40 -20 -59 -24 -35 -84 -77 -95 -66 -11
10 26 91 57 125 34 36 54 37 58 0z"/>
<path d="M4332 1079 c-40 -12 -112 -82 -112 -109 0 -26 3 -26 52 10 23 17 45
27 49 23 5 -5 -14 -76 -41 -158 -28 -82 -50 -160 -50 -172 0 -24 29 -37 71
-31 26 3 25 2 103 170 56 121 90 178 107 178 5 0 15 -16 23 -35 17 -40 35 -44
61 -15 12 13 25 18 37 14 12 -4 30 5 54 25 69 61 69 46 2 -154 -58 -173 -57
-185 13 -185 36 0 41 3 56 38 53 122 134 280 151 295 23 21 42 15 42 -12 0
-52 57 -46 85 9 21 40 19 76 -6 101 -39 39 -98 4 -161 -94 -17 -26 -33 -46
-35 -43 -3 3 1 28 8 56 29 112 -64 133 -167 38 l-44 -41 0 36 c0 38 -21 67
-48 67 -34 0 -82 -41 -128 -107 -26 -39 -43 -57 -40 -43 4 14 9 47 13 74 5 41
3 51 -12 62 -21 16 -36 16 -83 3z"/>
<path d="M5247 1076 c-108 -40 -187 -139 -203 -253 -8 -63 7 -111 47 -149 28
-27 36 -29 102 -29 83 0 123 16 182 73 76 74 115 212 80 286 -10 20 -30 45
-46 57 -37 26 -113 33 -162 15z m91 -48 c18 -18 15 -59 -13 -145 -25 -78 -76
-168 -106 -186 -76 -47 -61 128 24 266 26 42 61 77 77 77 3 0 11 -5 18 -12z"/>
<path d="M2725 498 c-2 -7 -16 -73 -31 -145 -25 -122 -27 -170 -4 -133 7 12
12 12 22 2 15 -15 72 -16 100 -1 30 16 61 94 54 135 -11 54 -80 85 -115 52
-11 -11 -12 -3 -6 45 4 39 3 57 -5 57 -6 0 -12 -6 -15 -12z m95 -118 c24 -24
25 -48 6 -95 -24 -57 -74 -72 -102 -30 -21 32 -11 89 21 121 29 29 49 30 75 4z"/>
<path d="M3460 454 c-10 -46 -15 -54 -28 -48 -33 14 -70 16 -91 4 -54 -28 -79
-130 -45 -178 11 -16 25 -22 54 -22 21 0 42 5 45 10 5 8 11 7 21 -1 8 -6 16
-10 19 -8 3 4 65 283 65 296 0 1 -6 3 -14 3 -10 0 -19 -19 -26 -56z m-52 -70
c58 -40 0 -171 -67 -149 -43 13 -39 109 6 145 31 24 33 24 61 4z"/>
<path d="M2000 485 c0 -8 7 -15 15 -15 8 0 15 7 15 15 0 8 -7 15 -15 15 -8 0
-15 -7 -15 -15z"/>
<path d="M2610 485 c0 -8 7 -15 15 -15 8 0 15 7 15 15 0 8 -7 15 -15 15 -8 0
-15 -7 -15 -15z"/>
<path d="M3220 484 c0 -17 22 -14 28 4 2 7 -3 12 -12 12 -9 0 -16 -7 -16 -16z"/>
<path d="M1717 483 c-5 -9 -57 -249 -57 -264 0 -16 120 -10 156 7 64 31 95
105 80 189 -9 48 -53 75 -123 75 -28 0 -54 -3 -56 -7z m133 -43 c14 -14 20
-33 20 -65 0 -86 -47 -135 -130 -135 -48 0 -49 2 -19 129 l21 91 44 0 c31 0
50 -6 64 -20z"/>
<path d="M2303 441 c-3 -11 -13 -21 -24 -24 -22 -6 -26 -27 -4 -27 15 0 15 -8
-5 -104 -5 -24 -5 -47 1 -58 10 -19 59 -25 59 -8 0 6 -6 10 -14 10 -20 0 -26
22 -16 66 5 22 11 51 15 67 3 18 12 27 25 27 27 0 36 20 11 27 -12 3 -21 13
-21 24 0 25 -20 25 -27 0z"/>
<path d="M1993 409 c-14 -17 -48 -188 -39 -196 13 -13 24 14 41 98 18 91 18
122 -2 98z"/>
<path d="M2095 396 c-30 -30 -24 -51 25 -86 58 -41 27 -94 -45 -76 -18 5 -25
2 -25 -9 0 -23 92 -21 113 3 29 31 21 63 -24 102 -40 34 -41 36 -24 54 14 13
27 16 53 11 26 -5 33 -3 30 7 -3 7 -21 14 -41 16 -29 3 -42 -3 -62 -22z"/>
<path d="M2465 413 c-30 -4 -31 -5 -48 -100 -10 -52 -16 -97 -13 -100 11 -11
25 10 31 50 13 77 35 117 66 124 16 3 29 12 29 19 0 14 -6 14 -65 7z"/>
<path d="M3564 386 c-29 -29 -34 -41 -34 -83 0 -62 28 -93 83 -93 57 0 98 42
104 107 5 45 2 55 -20 77 -39 39 -89 36 -133 -8z m108 -3 c27 -25 24 -85 -8
-122 -46 -56 -104 -33 -104 40 0 31 7 47 29 70 33 33 56 36 83 12z"/>
<path d="M3838 413 c-18 -3 -30 -12 -33 -26 -19 -79 -33 -162 -29 -169 11 -18
24 5 35 63 13 67 38 106 72 111 12 2 22 8 22 13 0 11 -27 14 -67 8z"/>
<path d="M3983 413 c-27 -10 -12 -25 18 -19 36 7 59 -7 59 -34 0 -14 -11 -20
-42 -25 -80 -13 -114 -54 -84 -101 15 -22 22 -24 76 -22 67 3 63 -1 79 91 11
62 3 100 -24 111 -19 7 -64 7 -82 -1z m77 -117 c0 -25 -41 -66 -65 -66 -35 0
-52 36 -29 61 21 23 94 27 94 5z"/>
<path d="M2577 328 c-20 -98 -21 -121 -5 -116 6 2 20 40 29 84 22 97 23 114 6
114 -8 0 -19 -30 -30 -82z"/>
<path d="M2941 353 c-15 -76 -14 -118 3 -132 15 -12 120 -11 132 2 3 3 14 46
23 96 14 72 15 91 5 91 -12 0 -18 -14 -41 -109 -11 -43 -52 -76 -83 -66 -21 7
-22 11 -17 69 4 33 10 71 13 84 5 16 2 22 -8 22 -10 0 -19 -18 -27 -57z"/>
<path d="M3199 398 c0 -7 -8 -50 -18 -96 -10 -48 -14 -85 -9 -88 15 -10 20 1
39 93 22 108 22 103 4 103 -8 0 -15 -6 -16 -12z"/>
<path d="M1407 333 c-66 -7 -29 -23 54 -23 64 0 79 3 79 15 0 15 -39 18 -133
8z"/>
<path d="M4217 333 c-4 -3 -7 -10 -7 -15 0 -11 167 -10 174 1 9 14 -153 29
-167 14z"/>
</g>
</svg>
